<svg xmlns="http://www.w3.org/2000/svg" xmlns:xlink="http://www.w3.org/1999/xlink" width="500" zoomAndPan="magnify" viewBox="0 0 375 374.999991" height="500" preserveAspectRatio="xMidYMid meet" version="1.0"><path fill="#100f0d" d="M 285.238281 196.476562 L 280.507812 213.546875 C 278.023438 222.496094 271.433594 229.71875 262.769531 233.027344 L 245.902344 239.453125 C 229.589844 245.671875 218.804688 261.308594 218.804688 278.753906 C 218.804688 286.125 220.734375 293.347656 224.40625 299.726562 C 232.652344 314.042969 225.816406 332.535156 210.09375 337.609375 C 203.808594 339.640625 196.363281 340.960938 187.667969 340.828125 C 178.988281 340.960938 171.542969 339.640625 165.257812 337.609375 C 149.539062 332.535156 142.703125 314.042969 150.933594 299.726562 C 154.605469 293.347656 156.550781 286.125 156.550781 278.753906 C 156.550781 261.308594 145.765625 245.671875 129.4375 239.453125 L 112.582031 233.027344 C 103.917969 229.71875 97.328125 222.496094 94.847656 213.546875 L 90.113281 196.476562 C 84.949219 177.882812 98.953125 159.492188 118.257812 159.492188 L 257.09375 159.492188 C 276.398438 159.492188 290.40625 177.882812 285.238281 196.476562 Z M 331.917969 134.011719 L 338.335938 118.289062 C 339.117188 116.359375 339.800781 114.359375 340.191406 112.3125 C 343.707031 93.75 329.464844 75.941406 309.945312 75.941406 L 244.25 75.941406 L 244.25 97.867188 C 244.25 106.585938 237.152344 113.675781 228.414062 113.675781 L 146.925781 113.675781 C 138.203125 113.675781 131.105469 106.585938 131.105469 97.867188 L 131.105469 75.941406 L 65.410156 75.941406 C 44.582031 75.941406 29.777344 96.199219 36.105469 116.027344 L 42.316406 135.273438 C 25.21875 139.347656 11.953125 158.1875 17.511719 174.851562 L 56.703125 292.34375 C 62 308.242188 71.667969 322.394531 84.714844 332.910156 C 136.792969 374.882812 187.667969 371.199219 187.667969 371.199219 C 187.667969 371.199219 238.558594 374.882812 290.640625 332.910156 C 303.6875 322.394531 313.355469 308.242188 318.652344 292.34375 L 357.84375 174.851562 C 363.402344 158.1875 349.019531 138.101562 331.917969 134.011719 " fill-opacity="1" fill-rule="nonzero"/><path fill="#100f0d" d="M 142.820312 97.867188 C 142.820312 100.132812 144.660156 101.988281 146.925781 101.988281 L 228.414062 101.988281 C 230.691406 101.988281 232.535156 100.132812 232.535156 97.867188 L 232.535156 75.941406 L 142.820312 75.941406 L 142.820312 97.867188 " fill-opacity="1" fill-rule="nonzero"/><path fill="#100f0d" d="M 65.410156 64.25 L 309.945312 64.25 C 311.46875 64.25 312.976562 64.335938 314.488281 64.496094 C 305.152344 27.976562 251.941406 0 187.667969 0 C 123.410156 0 70.199219 27.976562 60.867188 64.496094 C 62.363281 64.335938 63.886719 64.25 65.410156 64.25 " fill-opacity="1" fill-rule="nonzero"/></svg>